<svg id="图层_3" data-name="图层 3" xmlns="http://www.w3.org/2000/svg" viewBox="0 0 194 60"><defs><style>.cls-1{fill:#fff;}</style></defs><title>数人云logo</title><path class="cls-1" d="M32.74,53.62V46.94a19.15,19.15,0,0,1-3.39-28,3.2,3.2,0,1,1,4.86,4.16,12.8,12.8,0,1,0,19.46,0,3.2,3.2,0,0,1,4.86-4.16,19.15,19.15,0,0,1-3.39,28v6.68h8.72a14.35,14.35,0,0,0,5.26-27.48c0-.57.08-1.15,0.08-1.74A19.69,19.69,0,0,0,33.79,12.59,11.14,11.14,0,0,0,17.7,25.92a14.34,14.34,0,0,0,5.23,27.7h9.81Zm11.2-13.85a8,8,0,1,1,8-8,8,8,0,0,1-8,8"/><path class="cls-1" d="M35.94,31.77a8,8,0,1,1,8,8,8,8,0,0,1-8-8M33.79,12.6A11.14,11.14,0,0,0,17.7,25.92a14.34,14.34,0,0,0,5.23,27.7h9.81V46.94a19.15,19.15,0,0,1-3.39-28,3.2,3.2,0,0,1,4.86,4.16,12.8,12.8,0,1,0,19.46,0,3.2,3.2,0,1,1,4.86-4.16,19.15,19.15,0,0,1-3.39,28v6.68h8.72a14.35,14.35,0,0,0,5.26-27.48c0.05-.57.08-1.15,0.08-1.74A19.69,19.69,0,0,0,33.79,12.6"/><path class="cls-1" d="M87.07,53a1.05,1.05,0,0,0,.37.36,1.65,1.65,0,0,0,.52.19,2.87,2.87,0,0,0,.59.06,3.53,3.53,0,0,0,.49,0,1.86,1.86,0,0,0,.47-0.13,0.92,0.92,0,0,0,.36-0.28A0.73,0.73,0,0,0,90,52.68a0.66,0.66,0,0,0-.29-0.58A2.54,2.54,0,0,0,89,51.77c-0.29-.08-0.61-0.16-1-0.22a4.89,4.89,0,0,1-1-.28,2,2,0,0,1-.73-0.51,1.32,1.32,0,0,1-.29-0.91,1.45,1.45,0,0,1,.2-0.78,1.66,1.66,0,0,1,.53-0.53,2.47,2.47,0,0,1,.73-0.31,3.37,3.37,0,0,1,.8-0.1,4.75,4.75,0,0,1,.95.09,2.2,2.2,0,0,1,.77.3,1.58,1.58,0,0,1,.53.59,2.23,2.23,0,0,1,.23.92h-1a1,1,0,0,0-.15-0.49,1,1,0,0,0-.33-0.31,1.48,1.48,0,0,0-.44-0.17A2.18,2.18,0,0,0,88.4,49a2.86,2.86,0,0,0-.45,0,1.5,1.5,0,0,0-.42.12,0.84,0.84,0,0,0-.31.23,0.59,0.59,0,0,0-.12.38,0.56,0.56,0,0,0,.18.43,1.44,1.44,0,0,0,.46.28,4.32,4.32,0,0,0,.63.19l0.7,0.16c0.25,0.06.49,0.12,0.73,0.2a2.5,2.5,0,0,1,.63.31,1.53,1.53,0,0,1,.44.49,1.42,1.42,0,0,1,.17.73,1.68,1.68,0,0,1-.23.91,1.78,1.78,0,0,1-.6.58,2.46,2.46,0,0,1-.83.31,4.88,4.88,0,0,1-.92.09,4.29,4.29,0,0,1-1-.1A2.33,2.33,0,0,1,86.72,54a1.76,1.76,0,0,1-.56-0.63,2.19,2.19,0,0,1-.23-1h1a1.13,1.13,0,0,0,.15.56"/><path class="cls-1" d="M94.81,46v3.19h0a1.3,1.3,0,0,1,.33-0.47,1.83,1.83,0,0,1,.47-0.32,2.54,2.54,0,0,1,.55-0.18,2.79,2.79,0,0,1,.56-0.06,2.64,2.64,0,0,1,1,.16,1.63,1.63,0,0,1,.64.46,1.68,1.68,0,0,1,.35.7,3.77,3.77,0,0,1,.1.9v4h-1v-4.1a1.2,1.2,0,0,0-.33-0.89A1.22,1.22,0,0,0,96.6,49a2,2,0,0,0-.79.14,1.47,1.47,0,0,0-.56.4,1.7,1.7,0,0,0-.33.6,2.4,2.4,0,0,0-.11.75v3.42h-1V46h1Z"/><path class="cls-1" d="M106,54.32v-1h0a2,2,0,0,1-.81.82,2.43,2.43,0,0,1-1.16.26,2.71,2.71,0,0,1-1-.16,1.59,1.59,0,0,1-.64-0.45,1.68,1.68,0,0,1-.35-0.7,3.7,3.7,0,0,1-.1-0.89v-4h1v4.1a1.2,1.2,0,0,0,.33.89,1.22,1.22,0,0,0,.9.33,2,2,0,0,0,.79-0.14,1.47,1.47,0,0,0,.56-0.4,1.74,1.74,0,0,0,.33-0.6,2.43,2.43,0,0,0,.11-0.76V48.27h1v6H106Z"/><path class="cls-1" d="M111,48.27v1.27h0a2.7,2.7,0,0,1,.89-1.09,2.24,2.24,0,0,1,1.34-.33v1.05a2.79,2.79,0,0,0-1,.16,1.61,1.61,0,0,0-.68.48,2,2,0,0,0-.38.77,4.14,4.14,0,0,0-.12,1v2.69h-1v-6H111Z"/><path class="cls-1" d="M119.74,53.94a2.76,2.76,0,0,1-1.71.51,3.1,3.1,0,0,1-1.26-.24,2.42,2.42,0,0,1-.9-0.65,2.74,2.74,0,0,1-.54-1,4.81,4.81,0,0,1-.21-1.28,3.6,3.6,0,0,1,.21-1.26,3,3,0,0,1,.59-1,2.71,2.71,0,0,1,.9-0.66,2.76,2.76,0,0,1,1.14-.23,2.49,2.49,0,0,1,1.34.33,2.68,2.68,0,0,1,.86.85,3.38,3.38,0,0,1,.44,1.12,4.91,4.91,0,0,1,.1,1.16h-4.53a2.44,2.44,0,0,0,.09.75,1.67,1.67,0,0,0,.94,1.07,2.07,2.07,0,0,0,.85.16,1.72,1.72,0,0,0,1-.29,1.42,1.42,0,0,0,.53-0.89h1a2.42,2.42,0,0,1-.88,1.53M119.5,50a1.72,1.72,0,0,0-.36-0.54,1.75,1.75,0,0,0-.54-0.36,1.84,1.84,0,0,0-1.38,0,1.63,1.63,0,0,0-.53.37,1.84,1.84,0,0,0-.35.54,2.09,2.09,0,0,0-.15.66h3.48A2.08,2.08,0,0,0,119.5,50"/><path class="cls-1" d="M124.32,48.27v1h0a2.1,2.1,0,0,1,2-1.1,2.62,2.62,0,0,1,1,.16,1.66,1.66,0,0,1,.64.45,1.71,1.71,0,0,1,.35.7,3.74,3.74,0,0,1,.1.89v4h-1v-4.1a1.2,1.2,0,0,0-.33-0.89,1.22,1.22,0,0,0-.9-0.33,2,2,0,0,0-.79.14,1.47,1.47,0,0,0-.56.4,1.73,1.73,0,0,0-.33.6,2.43,2.43,0,0,0-.11.76v3.42h-1v-6h0.94Z"/><path class="cls-1" d="M133.91,55.13a6.28,6.28,0,0,1-.35.75,2.13,2.13,0,0,1-.37.5,1.28,1.28,0,0,1-.46.28,1.78,1.78,0,0,1-.58.09l-0.35,0a1.55,1.55,0,0,1-.34-0.08V55.72l0.3,0.1a1.36,1.36,0,0,0,.29,0,0.86,0.86,0,0,0,.51-0.14,0.89,0.89,0,0,0,.31-0.42l0.41-1-2.4-6H132l1.77,4.95h0l1.7-4.95h1.05Z"/><path class="cls-1" d="M143.1,54.32v-1h0a2,2,0,0,1-.81.82,2.43,2.43,0,0,1-1.16.26,2.71,2.71,0,0,1-1-.16,1.58,1.58,0,0,1-.64-0.45,1.66,1.66,0,0,1-.34-0.7,3.69,3.69,0,0,1-.1-0.89v-4h1v4.1a1.2,1.2,0,0,0,.33.89,1.22,1.22,0,0,0,.9.33,2,2,0,0,0,.79-0.14,1.45,1.45,0,0,0,.55-0.4,1.71,1.71,0,0,0,.33-0.6,2.43,2.43,0,0,0,.11-0.76V48.27h1v6H143.1Z"/><path class="cls-1" d="M148.12,48.27v1h0a2.1,2.1,0,0,1,2-1.1,2.62,2.62,0,0,1,1,.16,1.65,1.65,0,0,1,.64.45,1.7,1.7,0,0,1,.35.7,3.75,3.75,0,0,1,.1.89v4h-1v-4.1a1.2,1.2,0,0,0-.33-0.89A1.22,1.22,0,0,0,150,49a2,2,0,0,0-.79.14,1.47,1.47,0,0,0-.56.4,1.73,1.73,0,0,0-.33.6,2.43,2.43,0,0,0-.11.76v3.42h-1v-6h0.94Z"/><rect class="cls-1" x="155.56" y="53.02" width="1.3" height="1.3"/><path class="cls-1" d="M163.85,49.33a1.5,1.5,0,0,0-1-.32,1.85,1.85,0,0,0-.9.2,1.6,1.6,0,0,0-.58.53,2.19,2.19,0,0,0-.31.75,4.09,4.09,0,0,0-.09.88,3.39,3.39,0,0,0,.1.82,2.23,2.23,0,0,0,.31.71,1.58,1.58,0,0,0,.55.5,1.66,1.66,0,0,0,.81.19,1.63,1.63,0,0,0,1.15-.39,1.74,1.74,0,0,0,.51-1.09h1a2.79,2.79,0,0,1-.84,1.73,2.63,2.63,0,0,1-1.83.61,3.16,3.16,0,0,1-1.23-.22,2.35,2.35,0,0,1-.89-0.63,2.74,2.74,0,0,1-.54-1,4,4,0,0,1-.18-1.24,4.4,4.4,0,0,1,.18-1.27,2.94,2.94,0,0,1,.53-1,2.52,2.52,0,0,1,.9-0.69,2.94,2.94,0,0,1,1.25-.25,3.61,3.61,0,0,1,1,.12,2.32,2.32,0,0,1,.8.38,2,2,0,0,1,.57.65,2.42,2.42,0,0,1,.28.93h-1a1.5,1.5,0,0,0-.49-0.89"/><path class="cls-1" d="M168,50.06a2.82,2.82,0,0,1,.56-1,2.65,2.65,0,0,1,.93-0.67,3.4,3.4,0,0,1,2.54,0A2.68,2.68,0,0,1,173,49a2.86,2.86,0,0,1,.56,1,4.26,4.26,0,0,1,0,2.49,2.87,2.87,0,0,1-.56,1,2.6,2.6,0,0,1-.92.67,3.47,3.47,0,0,1-2.54,0,2.57,2.57,0,0,1-.93-0.67,2.82,2.82,0,0,1-.56-1,4.2,4.2,0,0,1,0-2.49m1,2.22a2,2,0,0,0,.4.71,1.75,1.75,0,0,0,.6.44,1.85,1.85,0,0,0,1.47,0,1.75,1.75,0,0,0,.6-0.44,2,2,0,0,0,.4-0.71,3.31,3.31,0,0,0,0-2,2.13,2.13,0,0,0-.4-0.72,1.73,1.73,0,0,0-.6-0.45,1.85,1.85,0,0,0-1.47,0,1.73,1.73,0,0,0-.6.45,2.13,2.13,0,0,0-.4.72,3,3,0,0,0-.15,1,3,3,0,0,0,.15,1"/><path class="cls-1" d="M177.46,48.27v0.89h0a2.36,2.36,0,0,1,3-.8,1.31,1.31,0,0,1,.64.79,2.1,2.1,0,0,1,.8-0.76,2.26,2.26,0,0,1,1.09-.27,3.2,3.2,0,0,1,.83.1,1.74,1.74,0,0,1,.63.31,1.39,1.39,0,0,1,.41.54,2,2,0,0,1,.15.8v4.43h-1v-4a2.72,2.72,0,0,0,0-.53,1.11,1.11,0,0,0-.18-0.43,0.89,0.89,0,0,0-.36-0.29,1.43,1.43,0,0,0-.59-0.11,1.58,1.58,0,0,0-1.16.42,1.52,1.52,0,0,0-.42,1.12v3.77h-1v-4a2.58,2.58,0,0,0-.05-0.54,1.13,1.13,0,0,0-.18-0.43,0.84,0.84,0,0,0-.35-0.28,1.32,1.32,0,0,0-.56-0.1,1.47,1.47,0,0,0-.74.18,1.65,1.65,0,0,0-.5.42,1.68,1.68,0,0,0-.28.51,1.46,1.46,0,0,0-.09.44v3.77h-1v-6h0.94Z"/><path class="cls-1" d="M124.27,38.31l8-25.56h6l-2.13,7.12h4.8l4.8,18.45c0.27,1,.81,1.19,1.88,1.19h3.17v4.08H144c-2,0-2.3-.78-2.8-2.24l-5.06-18.58h-0.8L128.94,42a2.17,2.17,0,0,1-2.4,1.58h-6.65V39.36h3a1.22,1.22,0,0,0,1.33-1.05"/><path class="cls-1" d="M107.36,21.65l2.31,6.19,2.55-8.07h4.54l-5,15,2,4.94a1,1,0,0,0,1.07.67h1.92v3.2h-4.19a1.93,1.93,0,0,1-1.87-1.33l-0.94-2.13L109,42.24a1.78,1.78,0,0,1-2,1.33h-4.23V40.51h1.88a0.81,0.81,0,0,0,.74-0.27l2-6-4.58-12.59h4.54Z"/><path class="cls-1" d="M102.77,20.47V16.6h0.67a1,1,0,0,0,1.07-1.07l0.27-2.8h4.28l-0.13,1.87h7.88v4h-8.55l-0.4.8c-0.36.8-1.2,1.07-2.54,1.07h-2.54Z"/><polygon class="cls-1" points="95.68 28.99 91.67 28.99 91.67 20.91 85.93 20.91 85.93 16.91 87 16.91 86.86 13.5 90.07 13.5 90.2 16.91 91.67 16.91 91.67 12.76 95.68 12.76 95.68 28.99"/><polygon class="cls-1" points="91.81 12.76 95.81 12.76 95.81 16.91 97.28 16.91 97.42 13.5 100.63 13.5 100.49 16.91 101.56 16.91 101.56 20.91 95.81 20.91 95.81 28.99 91.81 28.99 91.81 12.76"/><path class="cls-1" d="M86.06,28.25V25.58a1.12,1.12,0,0,0,1.34-1.2l0.4-2.27h3.47l-0.8,4.4c-0.32,1.17-.78,1.74-1.94,1.74H86.06Z"/><path class="cls-1" d="M101.56,28.25H99.39c-1.38,0-2.2-.53-2.37-1.87l-0.9-4.23h3.48l0.5,2.36c0.21,0.79.49,0.92,1.47,0.93v2.8Z"/><path class="cls-1" d="M100.36,34.51h1.2V30.77h-1.2V29.45H96.62v1.32H90.34V29.44H86.6v1.33H85.93v3.74H86.6V37.4l4.28,2.8a4.45,4.45,0,0,1-1.68.4H85.93v2.94h4.41a3.82,3.82,0,0,0,2-.54l1.4-1.07L95.55,43a3.19,3.19,0,0,0,1.74.54h4.28V40.6H99.17A4.13,4.13,0,0,1,97,39.8l3.34-2.94V34.51h0Zm-3.64,1.16-3,2.13-3.51-2.2v-1.1h6.49v1.16Z"/><path class="cls-1" d="M153.86,40.55l4.69-12.1h-4.69v-4.4h30.88v4.4H163.51l-4.14,10.86h19.78a0.6,0.6,0,0,0,.76-0.63v-5h4.83v6.6c0,2.2-1.09,3.3-3.17,3.3H153.86v-3Z"/><rect class="cls-1" x="154.44" y="12.73" width="30.3" height="4.4"/></svg>